<svg width="43" height="41" viewBox="0 0 43 41" fill="none" xmlns="http://www.w3.org/2000/svg">
<path d="M18.2395 25.9752L17.4943 26.0598L18.2395 25.9752ZM18.6867 29.9153L19.4319 29.8307V29.8307L18.6867 29.9153ZM5.31328 29.9153L4.56806 29.8307L4.56806 29.8307L5.31328 29.9153ZM5.76046 25.9752L6.50568 26.0598L5.76046 25.9752ZM4.44779 31.8721L3.87668 31.386H3.87668L4.44779 31.8721ZM19.5522 31.8721L18.9811 32.3583L19.5522 31.8721ZM14.2699 21.3737H13.5199C13.5199 21.6942 13.7237 21.9794 14.027 22.0832L14.2699 21.3737ZM9.73005 21.3737L9.973 22.0832C10.2763 21.9794 10.4801 21.6942 10.4801 21.3737H9.73005ZM15.7023 37.2632C15.8477 36.8753 15.6511 36.4431 15.2632 36.2977C14.8753 36.1523 14.4431 36.3489 14.2977 36.7368L15.7023 37.2632ZM9.7023 36.7368C9.55694 36.3489 9.12467 36.1523 8.7368 36.2977C8.34893 36.4431 8.15234 36.8753 8.2977 37.2632L9.7023 36.7368ZM17.7772 35V34.25H6.22281V35V35.75H17.7772V35ZM18.2395 25.9752L17.4943 26.0598L17.9415 29.9998L18.6867 29.9153L19.4319 29.8307L18.9848 25.8906L18.2395 25.9752ZM5.31328 29.9153L6.05849 29.9998L6.50568 26.0598L5.76046 25.9752L5.01525 25.8906L4.56806 29.8307L5.31328 29.9153ZM4.44779 31.8721L5.01889 32.3583C5.59621 31.6801 5.96028 30.8652 6.05849 29.9998L5.31328 29.9153L4.56806 29.8307C4.50519 30.3846 4.27067 30.9231 3.87668 31.386L4.44779 31.8721ZM18.6867 29.9153L17.9415 29.9998C18.0397 30.8652 18.4038 31.6801 18.9811 32.3583L19.5522 31.8721L20.1233 31.386C19.7293 30.9231 19.4948 30.3846 19.4319 29.8307L18.6867 29.9153ZM6.22281 35V34.25C5.56777 34.25 5.10443 33.926 4.89056 33.5492C4.68409 33.1854 4.68714 32.748 5.01889 32.3583L4.44779 31.8721L3.87668 31.386C3.11141 32.285 3.08777 33.4116 3.58598 34.2895C4.07679 35.1544 5.04947 35.75 6.22281 35.75V35ZM17.7772 35V35.75C18.9505 35.75 19.9232 35.1544 20.414 34.2895C20.9122 33.4116 20.8886 32.285 20.1233 31.386L19.5522 31.8721L18.9811 32.3583C19.3129 32.748 19.3159 33.1854 19.1094 33.5492C18.8956 33.926 18.4322 34.25 17.7772 34.25V35ZM14.2699 21.3737H15.0199V21.2699H14.2699H13.5199V21.3737H14.2699ZM18.2395 25.9752L18.9848 25.8906C18.7055 23.4303 16.8806 21.4748 14.5129 20.6641L14.2699 21.3737L14.027 22.0832C15.9441 22.7396 17.2913 24.271 17.4943 26.0598L18.2395 25.9752ZM9.73005 21.3737H10.4801V21.2699H9.73005H8.98005V21.3737H9.73005ZM5.76046 25.9752L6.50568 26.0598C6.7087 24.271 8.05587 22.7396 9.973 22.0832L9.73005 21.3737L9.48711 20.6641C7.11944 21.4748 5.29449 23.4303 5.01525 25.8906L5.76046 25.9752ZM12 19V19.75C12.8394 19.75 13.5199 20.4305 13.5199 21.2699H14.2699H15.0199C15.0199 19.6021 13.6679 18.25 12 18.25V19ZM12 19V18.25C10.3321 18.25 8.98005 19.6021 8.98005 21.2699H9.73005H10.4801C10.4801 20.4305 11.1606 19.75 12 19.75V19ZM15 37L14.2977 36.7368C13.975 37.5979 13.0846 38.25 12 38.25V39V39.75C13.6855 39.75 15.1516 38.7325 15.7023 37.2632L15 37ZM12 39V38.25C10.9154 38.25 10.025 37.5979 9.7023 36.7368L9 37L8.2977 37.2632C8.84835 38.7325 10.3145 39.75 12 39.75V39Z" fill="#606060"/>
<rect x="11" width="32" height="20" rx="10" fill="#459F49"/>
<path d="M20.1712 6.62784C20.5192 6.63021 20.8577 6.69176 21.1868 6.8125C21.5182 6.93087 21.8165 7.125 22.0817 7.39489C22.3468 7.66241 22.5575 8.02107 22.7138 8.47088C22.87 8.92069 22.9482 9.47704 22.9482 10.1399C22.9505 10.7649 22.8842 11.3236 22.7493 11.8161C22.6167 12.3061 22.4261 12.7204 22.1776 13.0589C21.929 13.3975 21.6295 13.6555 21.2791 13.8331C20.9287 14.0107 20.5346 14.0994 20.0966 14.0994C19.6373 14.0994 19.2301 14.0095 18.875 13.8295C18.5223 13.6496 18.237 13.4034 18.0192 13.0909C17.8014 12.7784 17.6676 12.4209 17.6179 12.0185H18.9141C18.9804 12.3073 19.1153 12.5369 19.3189 12.7074C19.5249 12.8755 19.7841 12.9595 20.0966 12.9595C20.6009 12.9595 20.9891 12.7405 21.2614 12.3026C21.5336 11.8646 21.6697 11.2562 21.6697 10.4773H21.62C21.504 10.6856 21.3537 10.8655 21.169 11.017C20.9844 11.1662 20.7749 11.281 20.5405 11.3615C20.3085 11.442 20.0623 11.4822 19.8018 11.4822C19.3757 11.4822 18.9922 11.3804 18.6513 11.1768C18.3127 10.9732 18.044 10.6939 17.8452 10.3388C17.6487 9.98366 17.5492 9.57765 17.5469 9.12074C17.5469 8.64725 17.6558 8.2223 17.8736 7.84588C18.0938 7.46709 18.4003 7.1688 18.7933 6.95099C19.1863 6.73082 19.6456 6.62311 20.1712 6.62784ZM20.1747 7.69318C19.919 7.69318 19.6882 7.75592 19.4822 7.88139C19.2786 8.0045 19.1177 8.17259 18.9993 8.38565C18.8833 8.59635 18.8253 8.83191 18.8253 9.09233C18.8277 9.35038 18.8857 9.58475 18.9993 9.79545C19.1153 10.0062 19.2727 10.1731 19.4716 10.2962C19.6728 10.4193 19.9025 10.4808 20.1605 10.4808C20.3523 10.4808 20.531 10.4441 20.6967 10.3707C20.8625 10.2973 21.0069 10.1955 21.13 10.0653C21.2554 9.93277 21.3525 9.78243 21.4212 9.61435C21.4922 9.44626 21.5265 9.2687 21.5241 9.08168C21.5241 8.8331 21.465 8.60346 21.3466 8.39276C21.2306 8.18205 21.0708 8.01278 20.8672 7.88494C20.666 7.7571 20.4351 7.69318 20.1747 7.69318ZM26.6555 6.62784C27.0036 6.63021 27.3421 6.69176 27.6712 6.8125C28.0026 6.93087 28.3009 7.125 28.5661 7.39489C28.8312 7.66241 29.0419 8.02107 29.1982 8.47088C29.3544 8.92069 29.4325 9.47704 29.4325 10.1399C29.4349 10.7649 29.3686 11.3236 29.2337 11.8161C29.1011 12.3061 28.9105 12.7204 28.6619 13.0589C28.4134 13.3975 28.1139 13.6555 27.7635 13.8331C27.4131 14.0107 27.0189 14.0994 26.581 14.0994C26.1217 14.0994 25.7145 14.0095 25.3594 13.8295C25.0066 13.6496 24.7214 13.4034 24.5036 13.0909C24.2857 12.7784 24.152 12.4209 24.1023 12.0185H25.3984C25.4647 12.3073 25.5997 12.5369 25.8033 12.7074C26.0092 12.8755 26.2685 12.9595 26.581 12.9595C27.0852 12.9595 27.4735 12.7405 27.7457 12.3026C28.018 11.8646 28.1541 11.2562 28.1541 10.4773H28.1044C27.9884 10.6856 27.8381 10.8655 27.6534 11.017C27.4688 11.1662 27.2592 11.281 27.0249 11.3615C26.7929 11.442 26.5466 11.4822 26.2862 11.4822C25.8601 11.4822 25.4766 11.3804 25.1357 11.1768C24.7971 10.9732 24.5284 10.6939 24.3295 10.3388C24.133 9.98366 24.0336 9.57765 24.0312 9.12074C24.0312 8.64725 24.1402 8.2223 24.358 7.84588C24.5781 7.46709 24.8847 7.1688 25.2777 6.95099C25.6707 6.73082 26.13 6.62311 26.6555 6.62784ZM26.6591 7.69318C26.4034 7.69318 26.1726 7.75592 25.9666 7.88139C25.763 8.0045 25.602 8.17259 25.4837 8.38565C25.3677 8.59635 25.3097 8.83191 25.3097 9.09233C25.312 9.35038 25.37 9.58475 25.4837 9.79545C25.5997 10.0062 25.7571 10.1731 25.956 10.2962C26.1572 10.4193 26.3868 10.4808 26.6449 10.4808C26.8366 10.4808 27.0154 10.4441 27.1811 10.3707C27.3468 10.2973 27.4912 10.1955 27.6143 10.0653C27.7398 9.93277 27.8369 9.78243 27.9055 9.61435C27.9766 9.44626 28.0109 9.2687 28.0085 9.08168C28.0085 8.8331 27.9493 8.60346 27.831 8.39276C27.715 8.18205 27.5552 8.01278 27.3516 7.88494C27.1503 7.7571 26.9195 7.69318 26.6591 7.69318ZM32.7741 12.8352V7.92045H33.8892V12.8352H32.7741ZM30.8743 10.9354V9.82031H35.7891V10.9354H30.8743Z" fill="white"/>
</svg>
