<svg width="40" height="40" viewBox="0 0 40 40" fill="none" xmlns="http://www.w3.org/2000/svg">
<rect width="40" height="40" rx="20" fill="#E8E8E8" fill-opacity="0.7"/>
<path d="M26.5938 21.3906C26.4062 21.2031 26.1094 21.2031 25.9375 21.3906C25.75 21.5781 25.75 21.875 25.9375 22.0469L28.25 24.375H15.625C15.3594 24.375 15.1562 24.5781 15.1562 24.8438C15.1562 25.1094 15.3594 25.3125 15.625 25.3125H28.25L25.9219 27.6406C25.7344 27.8281 25.7344 28.125 25.9219 28.2969C26.0156 28.3906 26.1406 28.4375 26.25 28.4375C26.3594 28.4375 26.4844 28.3906 26.5781 28.2969L29.7031 25.1719C29.8906 24.9844 29.8906 24.6875 29.7031 24.5156L26.5938 21.3906ZM24.8594 15.4688C24.8594 15.2031 24.6562 15 24.3906 15H11.75L14.0781 12.6719C14.2656 12.4844 14.2656 12.1875 14.0781 12.0156C13.8906 11.8281 13.5938 11.8281 13.4219 12.0156L10.2969 15.1406C10.1094 15.3281 10.1094 15.625 10.2969 15.7969L13.4219 18.9219C13.5156 19.0156 13.6406 19.0625 13.75 19.0625C13.8594 19.0625 13.9844 19.0156 14.0781 18.9219C14.2656 18.7344 14.2656 18.4375 14.0781 18.2656L11.75 15.9375H24.375C24.6406 15.9375 24.8594 15.7344 24.8594 15.4688Z" fill="#333333"/>
</svg>
